<svg id="Laag_2" data-name="Laag 2" xmlns="http://www.w3.org/2000/svg" viewBox="0 0 400 400"><defs><style>.cls-1{font-size:54.34px;font-family:Roboto-Black, Roboto Black;font-weight:800;}.cls-1,.cls-2{fill:#1f1f1f;}</style></defs><text class="cls-1" transform="translate(28.97 298.03)">Hanni</text><path class="cls-2" d="M186.65,298v-2.31l4.32-.35V262H180.12l-.35,5.89h-2.6v-8.49h30.76v8.49h-2.58L205,262H194.16v33.38l4.32.35V298Z"/><path class="cls-2" d="M210.5,298v-2.31l4.33-.35V272l-4.33-.35v-2.33h7.11l.35,4.38,0,.76a10.24,10.24,0,0,1,3.32-4.17,8.39,8.39,0,0,1,5-1.5,10.46,10.46,0,0,1,1.53.12,6.74,6.74,0,0,1,1.18.25l-.4,2.92-2.94-.19a6.7,6.7,0,0,0-5,1.75A9.63,9.63,0,0,0,218,278.5v16.87l4.32.35V298Z"/><path class="cls-2" d="M241.7,298.58a9,9,0,0,1-6.39-2.17,7.71,7.71,0,0,1-2.31-5.89,7.42,7.42,0,0,1,1.54-4.66,10.07,10.07,0,0,1,4.36-3.12,18.33,18.33,0,0,1,6.7-1.11h6v-3.29a6.86,6.86,0,0,0-1.85-5q-1.84-1.9-5.56-1.9a9.9,9.9,0,0,0-3.75.68,10.61,10.61,0,0,0-2.88,1.71l-.26,4.38h-2.63v-6a14.44,14.44,0,0,1,4.22-2.51,14.73,14.73,0,0,1,5.36-.91q5.07,0,7.8,2.54a9.18,9.18,0,0,1,2.73,7.06v13.85c0,.57,0,1.13.05,1.69s.1,1.11.19,1.65l3.42.14V298h-6.26c-.21-1-.36-1.89-.44-2.52a19.4,19.4,0,0,1-.14-2.15,12.2,12.2,0,0,1-4.14,3.76A11.31,11.31,0,0,1,241.7,298.58Zm.38-2.78a10.88,10.88,0,0,0,5.58-1.55,9.65,9.65,0,0,0,3.89-4.13v-6.05h-6a11.12,11.12,0,0,0-6.9,1.9,5.67,5.67,0,0,0-2.5,4.65,4.8,4.8,0,0,0,1.6,3.75A6.2,6.2,0,0,0,242.08,295.8Z"/><path class="cls-2" d="M275,298.58a11.28,11.28,0,0,1-6.33-1.8,12.1,12.1,0,0,1-4.3-5,17.11,17.11,0,0,1-1.55-7.51v-1.12a17.43,17.43,0,0,1,1.5-7.42,12,12,0,0,1,4.23-5.07,11.26,11.26,0,0,1,6.42-1.83,13.43,13.43,0,0,1,5.94,1.26,13.57,13.57,0,0,1,4.36,3.25l.05,6.5h-2.66l-.42-5.36a9.5,9.5,0,0,0-3.1-2.19,10.12,10.12,0,0,0-4.09-.78,7.76,7.76,0,0,0-4.75,1.51,9.84,9.84,0,0,0-3.17,4.15,15.14,15.14,0,0,0-1.13,6v1.12a15.57,15.57,0,0,0,1.12,6.14,9.37,9.37,0,0,0,3.13,4.1,7.92,7.92,0,0,0,4.77,1.46,8.43,8.43,0,0,0,5.36-1.68,7.31,7.31,0,0,0,2.6-5h2.84l.06.16a10.19,10.19,0,0,1-1.61,4.78,9.31,9.31,0,0,1-3.71,3.22A12.49,12.49,0,0,1,275,298.58Z"/><path class="cls-2" d="M290.55,298v-2.31l4.33-.35V259.31l-4.33-.34v-2.34h7.51v38.74l4.33.35V298Zm7.19-8.79-1.14-2.65L310.74,272l0-.16-3.13-.16v-2.33h10.29v2.33l-3.45.32ZM309,298v-2.31l3.16-.16,0-.13-9.53-12.87,1.81-2.42L316,295.43l3.59.29V298Z"/><path class="cls-2" d="M335.37,298.58a11.77,11.77,0,0,1-6.5-1.79,12.22,12.22,0,0,1-4.41-5,16.08,16.08,0,0,1-1.59-7.31v-1.46a16.39,16.39,0,0,1,1.59-7.34,13,13,0,0,1,4.31-5.08,10.6,10.6,0,0,1,6.07-1.85,11.44,11.44,0,0,1,6,1.51,10,10,0,0,1,3.85,4.26,14.61,14.61,0,0,1,1.34,6.46v2.7h-19.9l-.05,1.17a13.53,13.53,0,0,0,1.18,5.68,9.51,9.51,0,0,0,3.23,3.93,8.4,8.4,0,0,0,4.85,1.43,12.33,12.33,0,0,0,4.76-.86,12,12,0,0,0,3.62-2.35l1.35,2.18a14,14,0,0,1-4,2.64A14.21,14.21,0,0,1,335.37,298.58Zm-9-17.51h16.51v-.79a10.38,10.38,0,0,0-1-4.53,7.6,7.6,0,0,0-2.76-3.14,7.87,7.87,0,0,0-4.31-1.14,7.21,7.21,0,0,0-4.12,1.23,9.32,9.32,0,0,0-3,3.37,12.71,12.71,0,0,0-1.42,4.84Z"/><path class="cls-2" d="M351,298v-2.31l4.32-.35V272l-4.32-.35v-2.33h7.11l.34,4.38,0,.76a10.16,10.16,0,0,1,3.32-4.17,8.35,8.35,0,0,1,5-1.5,10.46,10.46,0,0,1,1.53.12,6.74,6.74,0,0,1,1.18.25l-.4,2.92-2.95-.19a6.7,6.7,0,0,0-5,1.75,9.63,9.63,0,0,0-2.68,4.86v16.87l4.32.35V298Z"/><path class="cls-2" d="M211,87.25v7.68l-11-2.84-11,2.84V87.25H142.85V165.3c0,21.78,24.42,46.45,57.15,60.36,32.73-13.91,57.15-38.58,57.15-60.36V87.25Zm.11,37.67V182c0,11.5-12.1,19.9-22.26,28.41V125h-8.08c-11.5,0-19.9-12.1-28.41-22.27H200v0h19.21c11.5,0,19.9,12.11,28.41,22.27Z"/></svg>