<svg id="Laag_2" data-name="Laag 2" xmlns="http://www.w3.org/2000/svg" viewBox="0 0 400 400"><defs><style>.cls-1{font-size:60.96px;font-family:Roboto-Black, Roboto Black;font-weight:800;}.cls-1,.cls-2{fill:#1f1f1f;}</style></defs><text class="cls-1" transform="translate(167.89 192.89)">Hanni</text><path class="cls-2" d="M181.24,249.86v-2.59l4.85-.38V209.44H173.92l-.39,6.61h-2.91v-9.52h34.49v9.52h-2.89l-.41-6.61H189.66v37.45l4.86.38v2.59Z"/><path class="cls-2" d="M208,249.86v-2.59l4.85-.38V220.67l-4.85-.39v-2.62h8l.38,4.91,0,.86a11.38,11.38,0,0,1,3.72-4.68,9.36,9.36,0,0,1,5.63-1.69,11.8,11.8,0,0,1,1.71.14,7.52,7.52,0,0,1,1.32.28l-.44,3.27-3.31-.2a7.5,7.5,0,0,0-5.59,2,10.89,10.89,0,0,0-3,5.45v18.93l4.85.38v2.59Z"/><path class="cls-2" d="M243,250.49a10.06,10.06,0,0,1-7.17-2.44,8.64,8.64,0,0,1-2.59-6.61,8.32,8.32,0,0,1,1.72-5.22,11.2,11.2,0,0,1,4.9-3.5,20.52,20.52,0,0,1,7.52-1.25H254v-3.69a7.71,7.71,0,0,0-2.07-5.61q-2.06-2.13-6.23-2.13a11,11,0,0,0-4.21.76,11.57,11.57,0,0,0-3.23,1.92l-.3,4.91h-2.95V220.9a16.12,16.12,0,0,1,4.74-2.81,16.61,16.61,0,0,1,6-1c3.79,0,6.7,1,8.75,2.86a10.31,10.31,0,0,1,3.07,7.92v15.54c0,.63,0,1.26.05,1.88s.11,1.25.21,1.86l3.84.15v2.59h-7c-.24-1.17-.4-2.11-.49-2.82a23.74,23.74,0,0,1-.17-2.42,13.61,13.61,0,0,1-4.64,4.23A12.76,12.76,0,0,1,243,250.49Zm.42-3.13a12.15,12.15,0,0,0,6.26-1.74A10.67,10.67,0,0,0,254,241v-6.78h-6.69q-4.95,0-7.74,2.13a6.34,6.34,0,0,0-2.8,5.22,5.4,5.4,0,0,0,1.79,4.2A6.93,6.93,0,0,0,243.42,247.36Z"/><path class="cls-2" d="M280.33,250.49a12.62,12.62,0,0,1-7.1-2,13.61,13.61,0,0,1-4.83-5.65,19.28,19.28,0,0,1-1.74-8.42v-1.25a19.65,19.65,0,0,1,1.68-8.34,13.57,13.57,0,0,1,4.75-5.68,12.66,12.66,0,0,1,7.2-2.06,15.09,15.09,0,0,1,11.55,5.06l.06,7.3h-3l-.48-6A10.52,10.52,0,0,0,285,221a11.22,11.22,0,0,0-4.59-.88,8.63,8.63,0,0,0-5.32,1.7,11,11,0,0,0-3.56,4.65,17.06,17.06,0,0,0-1.27,6.72v1.25a17.72,17.72,0,0,0,1.25,6.89,10.73,10.73,0,0,0,3.52,4.6,8.87,8.87,0,0,0,5.35,1.63,9.48,9.48,0,0,0,6-1.89,8.15,8.15,0,0,0,2.91-5.58h3.19l.06.18a11.44,11.44,0,0,1-1.8,5.36,10.34,10.34,0,0,1-4.17,3.61A13.89,13.89,0,0,1,280.33,250.49Z"/><path class="cls-2" d="M297.8,249.86v-2.59l4.85-.38V206.44l-4.85-.39v-2.62h8.42v43.46l4.85.38v2.59Zm8.06-9.85-1.28-3,15.87-16.41,0-.17-3.52-.18v-2.62h11.55v2.62l-3.87.35Zm12.68,9.85v-2.59l3.54-.17,0-.15-10.68-14.44,2-2.71,13,17.15,4,.32v2.59Z"/><path class="cls-2" d="M348.07,250.49a13.26,13.26,0,0,1-7.29-2,13.75,13.75,0,0,1-4.95-5.57,18,18,0,0,1-1.78-8.2v-1.63a18.34,18.34,0,0,1,1.78-8.23,14.65,14.65,0,0,1,4.84-5.7,11.8,11.8,0,0,1,6.8-2.09,12.86,12.86,0,0,1,6.77,1.7,11.08,11.08,0,0,1,4.32,4.78,16.36,16.36,0,0,1,1.5,7.24v3H337.74l-.06,1.31A15.39,15.39,0,0,0,339,241.5a10.63,10.63,0,0,0,3.64,4.4,9.25,9.25,0,0,0,5.43,1.61,13.64,13.64,0,0,0,5.34-1,13.21,13.21,0,0,0,4.06-2.63l1.52,2.44a15.18,15.18,0,0,1-10.92,4.14ZM338,230.84h18.51V230a11.43,11.43,0,0,0-1.09-5.07,8.37,8.37,0,0,0-3.09-3.53,8.84,8.84,0,0,0-4.84-1.28,8.09,8.09,0,0,0-4.61,1.38,10.53,10.53,0,0,0-3.35,3.78,14.33,14.33,0,0,0-1.59,5.44Z"/><path class="cls-2" d="M365.57,249.86v-2.59l4.85-.38V220.67l-4.85-.39v-2.62h8l.38,4.91,0,.86a11.54,11.54,0,0,1,3.72-4.68,9.36,9.36,0,0,1,5.63-1.69,11.8,11.8,0,0,1,1.71.14,7.52,7.52,0,0,1,1.32.28l-.44,3.27-3.31-.2a7.5,7.5,0,0,0-5.59,2,10.89,10.89,0,0,0-3,5.45v18.93l4.85.38v2.59Z"/><path class="cls-2" d="M88.4,122.37V131L76,127.8,63.68,131v-8.61H11.93v87.55c0,24.44,27.39,52.12,64.11,67.71,36.72-15.59,64.11-43.27,64.11-67.71V122.37Zm.13,42.26v64c0,12.9-13.58,22.32-25,31.86v-95.8H54.49c-12.9,0-22.32-13.58-31.86-25H76v0H97.59c12.9,0,22.32,13.58,31.86,25Z"/></svg>